<svg width="17" height="16" viewBox="0 0 17 16" fill="none" xmlns="http://www.w3.org/2000/svg">
    <path fill-rule="evenodd" clip-rule="evenodd" d="M15.207 3.29305C15.3946 3.48074 15.5 3.73528 15.5 4.00068C15.5 4.26608 15.3946 4.52062 15.207 4.70831L7.1998 12.7155C7.01211 12.9031 6.75757 13.0085 6.49217 13.0085C6.22677 13.0085 5.97223 12.9031 5.78454 12.7155L1.78096 8.71189C1.59864 8.52312 1.49776 8.27029 1.50004 8.00786C1.50232 7.74543 1.60758 7.49439 1.79316 7.30882C1.97873 7.12324 2.22977 7.01798 2.4922 7.0157C2.75463 7.01342 3.00746 7.1143 3.19623 7.29662L6.49217 10.5926L13.7917 3.29305C13.9794 3.10541 14.2339 3 14.4993 3C14.7647 3 15.0193 3.10541 15.207 3.29305Z" fill="white"/>
</svg>
