<svg width="259" height="40" viewBox="0 0 259 40" fill="none" xmlns="http://www.w3.org/2000/svg">
<path d="M20 0C19.3387 0 18.6848 0.0321143 18.0396 0.0948999C17.7065 0.127322 17.4627 0.423672 17.4951 0.756816C17.4956 0.76203 17.4919 0.766745 17.4867 0.767417C17.4739 0.769072 17.4612 0.77074 17.4484 0.77242C17.4431 0.773106 17.4383 0.769479 17.4375 0.764284C17.3834 0.433974 17.0717 0.210093 16.7414 0.264232C15.8717 0.406776 15.0208 0.605426 14.1926 0.856354C13.8723 0.953407 13.6912 1.29177 13.7883 1.61211C13.7898 1.61718 13.7871 1.62258 13.7821 1.62428C12.9633 1.90125 12.169 2.23141 11.4033 2.61066C11.3986 2.613 11.3929 2.61112 11.3904 2.60647C11.2323 2.31141 10.865 2.20034 10.57 2.35837C10.1846 2.56481 9.80671 2.7835 9.43695 3.01391C9.15287 3.19094 9.06608 3.56473 9.2431 3.84881C9.24588 3.85326 9.24467 3.85914 9.2403 3.86205C8.87741 4.10449 8.52315 4.35884 8.17809 4.62454C8.17395 4.62773 8.16802 4.62701 8.1647 4.62297C7.95221 4.36434 7.5703 4.32695 7.31168 4.53943C6.29972 5.37088 5.37087 6.29973 4.53943 7.31168C4.32694 7.5703 4.36434 7.95221 4.62296 8.1647C4.627 8.16802 4.62773 8.17395 4.62454 8.1781C4.61675 8.18822 4.60896 8.19834 4.60119 8.20848C4.598 8.21263 4.59208 8.21346 4.58783 8.21041C4.31591 8.01521 3.93725 8.07741 3.74206 8.34932C3.23448 9.0564 2.77185 9.79801 2.35837 10.57C2.20033 10.865 2.31141 11.2324 2.60647 11.3904C2.61112 11.3929 2.613 11.3986 2.61066 11.4033C2.23141 12.169 1.90125 12.9633 1.62428 13.7821C1.62258 13.7871 1.61718 13.7898 1.61211 13.7883C1.29177 13.6913 0.953407 13.8723 0.856353 14.1926C0.730349 14.6085 0.617525 15.0301 0.518367 15.457C0.442628 15.783 0.645534 16.1087 0.971571 16.1844C0.976722 16.1856 0.980041 16.1907 0.979009 16.1959C0.894396 16.6213 0.823701 17.0518 0.767417 17.4867C0.766744 17.4919 0.76203 17.4956 0.756815 17.4951C0.423671 17.4627 0.127321 17.7065 0.0948996 18.0396C0.0321142 18.6848 0 19.3387 0 20C0 20.6613 0.0321143 21.3152 0.0948999 21.9604C0.127322 22.2935 0.423672 22.5373 0.756816 22.5049C0.762031 22.5044 0.766745 22.5081 0.767417 22.5133C0.769073 22.5261 0.77074 22.5388 0.77242 22.5516C0.773106 22.5569 0.769479 22.5617 0.764284 22.5625C0.433974 22.6166 0.210093 22.9283 0.264232 23.2586C0.406776 24.1283 0.605426 24.9792 0.856354 25.8074C0.953407 26.1277 1.29177 26.3088 1.61211 26.2117C1.61718 26.2102 1.62258 26.2129 1.62428 26.2179C1.90125 27.0367 2.23141 27.831 2.61066 28.5967C2.613 28.6014 2.61112 28.6071 2.60647 28.6096C2.31141 28.7677 2.20034 29.135 2.35837 29.43C2.56481 29.8154 2.7835 30.1933 3.01391 30.5631C3.19094 30.8471 3.56473 30.9339 3.84881 30.7569C3.85326 30.7541 3.85914 30.7553 3.86205 30.7597C4.10449 31.1226 4.35883 31.4768 4.62454 31.8219C4.62773 31.826 4.62701 31.832 4.62297 31.8353C4.36434 32.0478 4.32695 32.4297 4.53943 32.6883C5.37088 33.7003 6.29973 34.6291 7.31168 35.4606C7.5703 35.6731 7.95221 35.6357 8.1647 35.377C8.16802 35.373 8.17395 35.3723 8.1781 35.3755C8.18822 35.3833 8.19834 35.391 8.20848 35.3988C8.21263 35.402 8.21346 35.4079 8.21041 35.4122C8.01521 35.6841 8.07741 36.0627 8.34932 36.2579C9.0564 36.7655 9.79801 37.2281 10.57 37.6416C10.865 37.7997 11.2324 37.6886 11.3904 37.3935C11.3929 37.3889 11.3986 37.387 11.4033 37.3893C12.169 37.7686 12.9633 38.0987 13.7821 38.3757C13.7871 38.3774 13.7898 38.3828 13.7883 38.3879C13.6913 38.7082 13.8723 39.0466 14.1926 39.1437C14.6085 39.2697 15.0301 39.3825 15.457 39.4816C15.783 39.5574 16.1087 39.3545 16.1844 39.0284C16.1856 39.0233 16.1907 39.02 16.1959 39.021C16.6213 39.1056 17.0518 39.1763 17.4867 39.2326C17.4919 39.2333 17.4956 39.238 17.4951 39.2432C17.4627 39.5763 17.7065 39.8727 18.0396 39.9051C18.6848 39.9679 19.3387 40 20 40C20.6613 40 21.3152 39.9679 21.9604 39.9051C22.2935 39.8727 22.5373 39.5763 22.5049 39.2432C22.5044 39.238 22.5081 39.2333 22.5133 39.2326C22.5261 39.2309 22.5388 39.2293 22.5516 39.2276C22.5569 39.2269 22.5617 39.2305 22.5625 39.2357C22.6166 39.566 22.9283 39.7899 23.2586 39.7358C24.1283 39.5932 24.9792 39.3946 25.8074 39.1437C26.1277 39.0466 26.3088 38.7082 26.2117 38.3879C26.2102 38.3828 26.2129 38.3774 26.2179 38.3757C27.0367 38.0987 27.831 37.7686 28.5967 37.3893C28.6014 37.387 28.6071 37.3889 28.6096 37.3935C28.7677 37.6886 29.135 37.7997 29.43 37.6416C29.8154 37.4352 30.1933 37.2165 30.5631 36.9861C30.8471 36.8091 30.9339 36.4353 30.7569 36.1512C30.7541 36.1467 30.7553 36.1409 30.7597 36.1379C31.1226 35.8955 31.4768 35.6412 31.8219 35.3755C31.826 35.3723 31.832 35.373 31.8353 35.377C32.0478 35.6357 32.4297 35.6731 32.6883 35.4606C33.7003 34.6291 34.6291 33.7003 35.4606 32.6883C35.6731 32.4297 35.6357 32.0478 35.377 31.8353C35.373 31.832 35.3723 31.826 35.3755 31.8219C35.3833 31.8118 35.391 31.8017 35.3988 31.7915C35.402 31.7874 35.4079 31.7865 35.4122 31.7896C35.6841 31.9848 36.0627 31.9226 36.2579 31.6507C36.7655 30.9436 37.2281 30.202 37.6416 29.43C37.7997 29.135 37.6886 28.7676 37.3935 28.6096C37.3889 28.6071 37.387 28.6014 37.3893 28.5967C37.7686 27.831 38.0987 27.0367 38.3757 26.2179C38.3774 26.2129 38.3828 26.2102 38.3879 26.2117C38.7082 26.3087 39.0466 26.1277 39.1437 25.8074C39.2697 25.3915 39.3825 24.9699 39.4816 24.543C39.5574 24.217 39.3545 23.8913 39.0284 23.8156C39.0233 23.8144 39.02 23.8093 39.021 23.8041C39.1056 23.3787 39.1763 22.9482 39.2326 22.5133C39.2333 22.5081 39.238 22.5044 39.2432 22.5049C39.5763 22.5373 39.8727 22.2935 39.9051 21.9604C39.9679 21.3152 40 20.6613 40 20C40 19.3387 39.9679 18.6848 39.9051 18.0396C39.8727 17.7065 39.5763 17.4627 39.2432 17.4951C39.238 17.4956 39.2333 17.4919 39.2326 17.4867C39.2309 17.4739 39.2293 17.4612 39.2276 17.4484C39.2269 17.4431 39.2305 17.4383 39.2357 17.4375C39.566 17.3834 39.7899 17.0717 39.7358 16.7414C39.5932 15.8717 39.3946 15.0208 39.1437 14.1926C39.0466 13.8723 38.7082 13.6912 38.3879 13.7883C38.3828 13.7898 38.3774 13.7871 38.3757 13.7821C38.0987 12.9633 37.7686 12.169 37.3893 11.4033C37.387 11.3986 37.3889 11.3929 37.3935 11.3904C37.6886 11.2323 37.7997 10.865 37.6416 10.57C37.4352 10.1846 37.2165 9.80671 36.9861 9.43695C36.8091 9.15287 36.4353 9.06608 36.1512 9.2431C36.1467 9.24588 36.1409 9.24467 36.1379 9.2403C35.8955 8.8774 35.6412 8.52316 35.3755 8.17809C35.3723 8.17395 35.373 8.16802 35.377 8.1647C35.6357 7.95221 35.6731 7.5703 35.4606 7.31168C34.6291 6.29972 33.7003 5.37087 32.6883 4.53943C32.4297 4.32694 32.0478 4.36434 31.8353 4.62296C31.832 4.627 31.826 4.62773 31.8219 4.62454C31.8118 4.61675 31.8017 4.60897 31.7915 4.60119C31.7874 4.59801 31.7865 4.59208 31.7896 4.58783C31.9848 4.31591 31.9226 3.93725 31.6507 3.74206C30.9436 3.23448 30.202 2.77185 29.43 2.35837C29.135 2.20033 28.7676 2.31141 28.6096 2.60647C28.6071 2.61112 28.6014 2.613 28.5967 2.61066C27.831 2.23141 27.0367 1.90125 26.2179 1.62428C26.2129 1.62258 26.2102 1.61718 26.2117 1.61211C26.3087 1.29177 26.1277 0.953407 25.8074 0.856353C25.3915 0.730349 24.9699 0.617525 24.543 0.518367C24.217 0.442628 23.8913 0.645534 23.8156 0.971571C23.8144 0.976723 23.8093 0.980041 23.8041 0.97901C23.3787 0.894396 22.9482 0.823701 22.5133 0.767417C22.5081 0.766744 22.5044 0.762031 22.5049 0.756815C22.5373 0.423671 22.2935 0.127321 21.9604 0.0948996C21.3152 0.0321142 20.6613 0 20 0Z" fill="#FFC680"/>
<path d="M20 2.5C19.4214 2.5 18.8492 2.5281 18.2847 2.58304C17.9932 2.61141 17.7799 2.87071 17.8082 3.16221C17.8087 3.16678 17.8054 3.1709 17.8009 3.17149C17.7897 3.17294 17.7785 3.1744 17.7673 3.17587C17.7628 3.17647 17.7586 3.17329 17.7578 3.16875C17.7104 2.87973 17.4377 2.68383 17.1487 2.7312C16.3877 2.85593 15.6432 3.02975 14.9185 3.24931C14.6382 3.33423 14.4798 3.6303 14.5648 3.9106C14.5661 3.91503 14.5637 3.91976 14.5593 3.92124C13.8429 4.1636 13.1479 4.45249 12.4779 4.78433C12.4738 4.78638 12.4688 4.78473 12.4666 4.78066C12.3283 4.52249 12.0069 4.42529 11.7487 4.56358C11.4115 4.74421 11.0809 4.93556 10.7573 5.13718C10.5088 5.29207 10.4328 5.61914 10.5877 5.86771C10.5901 5.8716 10.5891 5.87674 10.5853 5.8793C10.2677 6.09143 9.95776 6.31398 9.65583 6.54647C9.6522 6.54926 9.64702 6.54863 9.64411 6.54509C9.45818 6.3188 9.12401 6.28608 8.89772 6.472C8.01226 7.19952 7.19951 8.01226 6.472 8.89772C6.28608 9.12402 6.3188 9.45819 6.54509 9.64411C6.54863 9.64702 6.54926 9.65221 6.54647 9.65583C6.53965 9.66469 6.53284 9.67355 6.52604 9.68242C6.52325 9.68605 6.51807 9.68678 6.51435 9.6841C6.27642 9.51331 5.94509 9.56773 5.7743 9.80566C5.33017 10.4243 4.92537 11.0733 4.56358 11.7487C4.42529 12.0069 4.52248 12.3283 4.78066 12.4666C4.78473 12.4688 4.78637 12.4738 4.78433 12.4779C4.45249 13.1479 4.16359 13.8429 3.92124 14.5593C3.91976 14.5637 3.91503 14.5661 3.91059 14.5648C3.6303 14.4798 3.33423 14.6382 3.24931 14.9185C3.13905 15.2824 3.04033 15.6513 2.95357 16.0248C2.8873 16.3101 3.06484 16.5951 3.35012 16.6614C3.35463 16.6624 3.35754 16.6668 3.35663 16.6714C3.2826 17.0437 3.22074 17.4203 3.17149 17.8009C3.1709 17.8054 3.16678 17.8087 3.16221 17.8082C2.87071 17.7799 2.61141 17.9932 2.58304 18.2847C2.5281 18.8492 2.5 19.4214 2.5 20C2.5 20.5786 2.5281 21.1508 2.58304 21.7153C2.61141 22.0068 2.87071 22.2201 3.16221 22.1918C3.16678 22.1913 3.1709 22.1946 3.17149 22.1991C3.17294 22.2103 3.1744 22.2215 3.17587 22.2327C3.17647 22.2372 3.17329 22.2414 3.16875 22.2422C2.87973 22.2896 2.68383 22.5623 2.7312 22.8513C2.85593 23.6123 3.02975 24.3568 3.24931 25.0815C3.33423 25.3618 3.6303 25.5202 3.9106 25.4352C3.91503 25.4339 3.91976 25.4363 3.92125 25.4407C4.1636 26.1571 4.45249 26.8521 4.78433 27.5221C4.78638 27.5262 4.78473 27.5312 4.78066 27.5334C4.52249 27.6717 4.42529 27.9931 4.56358 28.2513C4.74421 28.5885 4.93556 28.9191 5.13718 29.2427C5.29207 29.4912 5.61914 29.5672 5.86771 29.4123C5.8716 29.4099 5.87675 29.4109 5.8793 29.4147C6.09143 29.7323 6.31398 30.0422 6.54647 30.3442C6.54927 30.3478 6.54863 30.353 6.54509 30.3559C6.3188 30.5418 6.28608 30.876 6.472 31.1023C7.19952 31.9877 8.01226 32.8005 8.89772 33.528C9.12402 33.7139 9.45819 33.6812 9.64411 33.4549C9.64702 33.4514 9.65221 33.4507 9.65584 33.4535C9.66469 33.4603 9.67355 33.4672 9.68242 33.474C9.68605 33.4767 9.68678 33.4819 9.6841 33.4857C9.51331 33.7236 9.56773 34.0549 9.80566 34.2257C10.4243 34.6698 11.0733 35.0746 11.7487 35.4364C12.0069 35.5747 12.3283 35.4775 12.4666 35.2193C12.4688 35.2153 12.4738 35.2136 12.4779 35.2157C13.1479 35.5475 13.8429 35.8364 14.5593 36.0788C14.5637 36.0802 14.5661 36.085 14.5648 36.0894C14.4798 36.3697 14.6382 36.6658 14.9185 36.7507C15.2824 36.8609 15.6513 36.9597 16.0248 37.0464C16.3101 37.1127 16.5951 36.9352 16.6614 36.6499C16.6624 36.6454 16.6669 36.6425 16.6714 36.6434C17.0437 36.7174 17.4203 36.7793 17.8009 36.8285C17.8054 36.8291 17.8087 36.8332 17.8082 36.8378C17.7799 37.1293 17.9932 37.3886 18.2847 37.417C18.8492 37.4719 19.4214 37.5 20 37.5C20.5786 37.5 21.1508 37.4719 21.7153 37.417C22.0068 37.3886 22.2201 37.1293 22.1918 36.8378C22.1913 36.8332 22.1946 36.8291 22.1991 36.8285C22.2103 36.8271 22.2215 36.8256 22.2327 36.8241C22.2372 36.8235 22.2414 36.8267 22.2422 36.8312C22.2896 37.1203 22.5623 37.3162 22.8513 37.2688C23.6123 37.1441 24.3568 36.9703 25.0815 36.7507C25.3618 36.6658 25.5202 36.3697 25.4352 36.0894C25.4339 36.085 25.4363 36.0802 25.4407 36.0788C26.1571 35.8364 26.8521 35.5475 27.5221 35.2157C27.5262 35.2136 27.5312 35.2153 27.5334 35.2193C27.6717 35.4775 27.9931 35.5747 28.2513 35.4364C28.5885 35.2558 28.9191 35.0644 29.2427 34.8628C29.4912 34.7079 29.5672 34.3809 29.4123 34.1323C29.4099 34.1284 29.4109 34.1233 29.4147 34.1207C29.7323 33.9086 30.0422 33.686 30.3442 33.4535C30.3478 33.4507 30.353 33.4514 30.3559 33.4549C30.5418 33.6812 30.876 33.7139 31.1023 33.528C31.9877 32.8005 32.8005 31.9877 33.528 31.1023C33.7139 30.876 33.6812 30.5418 33.4549 30.3559C33.4514 30.353 33.4507 30.3478 33.4535 30.3442C33.4603 30.3353 33.4672 30.3265 33.474 30.3176C33.4767 30.3139 33.4819 30.3132 33.4857 30.3159C33.7236 30.4867 34.0549 30.4323 34.2257 30.1943C34.6698 29.5756 35.0746 28.9267 35.4364 28.2513C35.5747 27.9931 35.4775 27.6717 35.2193 27.5334C35.2153 27.5312 35.2136 27.5262 35.2157 27.5221C35.5475 26.8521 35.8364 26.1571 36.0788 25.4407C36.0802 25.4363 36.085 25.4339 36.0894 25.4352C36.3697 25.5202 36.6658 25.3618 36.7507 25.0815C36.8609 24.7176 36.9597 24.3486 37.0464 23.9752C37.1127 23.6899 36.9352 23.4049 36.6499 23.3386C36.6454 23.3376 36.6425 23.3331 36.6434 23.3286C36.7174 22.9563 36.7793 22.5797 36.8285 22.1991C36.8291 22.1946 36.8332 22.1913 36.8378 22.1918C37.1293 22.2201 37.3886 22.0068 37.417 21.7153C37.4719 21.1508 37.5 20.5786 37.5 20C37.5 19.4214 37.4719 18.8492 37.417 18.2847C37.3886 17.9932 37.1293 17.7799 36.8378 17.8082C36.8332 17.8087 36.8291 17.8054 36.8285 17.8009C36.8271 17.7897 36.8256 17.7785 36.8241 17.7673C36.8235 17.7628 36.8267 17.7586 36.8312 17.7578C37.1203 17.7104 37.3162 17.4377 37.2688 17.1487C37.1441 16.3877 36.9703 15.6432 36.7507 14.9185C36.6658 14.6382 36.3697 14.4798 36.0894 14.5648C36.085 14.5661 36.0802 14.5637 36.0788 14.5593C35.8364 13.8429 35.5475 13.1479 35.2157 12.4779C35.2136 12.4738 35.2153 12.4688 35.2193 12.4666C35.4775 12.3283 35.5747 12.0069 35.4364 11.7487C35.2558 11.4115 35.0644 11.0809 34.8628 10.7573C34.7079 10.5088 34.3809 10.4328 34.1323 10.5877C34.1284 10.5901 34.1233 10.5891 34.1207 10.5853C33.9086 10.2677 33.686 9.95776 33.4535 9.65583C33.4507 9.65221 33.4514 9.64702 33.4549 9.64411C33.6812 9.45818 33.7139 9.12401 33.528 8.89772C32.8005 8.01226 31.9877 7.19951 31.1023 6.472C30.876 6.28608 30.5418 6.3188 30.3559 6.54509C30.353 6.54863 30.3478 6.54926 30.3442 6.54647C30.3353 6.53965 30.3265 6.53285 30.3176 6.52604C30.3139 6.52326 30.3132 6.51807 30.3159 6.51435C30.4867 6.27642 30.4323 5.94509 30.1943 5.7743C29.5756 5.33017 28.9267 4.92537 28.2513 4.56358C27.9931 4.42529 27.6717 4.52248 27.5334 4.78066C27.5312 4.78473 27.5262 4.78637 27.5221 4.78433C26.8521 4.45249 26.1571 4.1636 25.4407 3.92125C25.4363 3.91976 25.4339 3.91503 25.4352 3.91059C25.5202 3.6303 25.3618 3.33423 25.0815 3.24931C24.7176 3.13905 24.3486 3.04033 23.9752 2.95357C23.6899 2.8873 23.4049 3.06484 23.3386 3.35012C23.3376 3.35463 23.3332 3.35754 23.3286 3.35663C22.9563 3.2826 22.5797 3.22074 22.1991 3.17149C22.1946 3.1709 22.1913 3.16678 22.1918 3.16221C22.2201 2.87071 22.0068 2.61141 21.7153 2.58304C21.1508 2.5281 20.5786 2.5 20 2.5Z" fill="#F79D5C"/>
<path d="M10.625 10C10.5217 10 10.4195 10.005 10.3187 10.0148C10.2666 10.0199 10.2285 10.0662 10.2336 10.1183C10.2337 10.1191 10.2331 10.1198 10.2323 10.1199C10.2303 10.1202 10.2283 10.1204 10.2263 10.1207C10.2255 10.1208 10.2247 10.1202 10.2246 10.1194C10.2161 10.0678 10.1675 10.0328 10.1158 10.0413C9.97995 10.0636 9.847 10.0946 9.71759 10.1338C9.66754 10.149 9.63926 10.2018 9.65442 10.2519C9.65466 10.2527 9.65424 10.2535 9.65345 10.2538C9.52551 10.2971 9.4014 10.3487 9.28177 10.4079C9.28103 10.4083 9.28014 10.408 9.27975 10.4073C9.25505 10.3612 9.19766 10.3438 9.15156 10.3685C9.09134 10.4008 9.0323 10.4349 8.97452 10.4709C8.93014 10.4986 8.91658 10.557 8.94424 10.6014C8.94467 10.6021 8.94448 10.603 8.9438 10.6034C8.88709 10.6413 8.83174 10.6811 8.77783 10.7226C8.77718 10.7231 8.77625 10.723 8.77573 10.7223C8.74253 10.6819 8.68286 10.6761 8.64245 10.7093C8.48433 10.8392 8.3392 10.9843 8.20929 11.1425C8.17608 11.1829 8.18193 11.2425 8.22234 11.2757C8.22297 11.2763 8.22308 11.2772 8.22258 11.2778C8.22137 11.2794 8.22015 11.281 8.21894 11.2826C8.21844 11.2832 8.21751 11.2834 8.21685 11.2829C8.17436 11.2524 8.1152 11.2621 8.0847 11.3046C8.00539 11.4151 7.9331 11.5309 7.8685 11.6516C7.8438 11.6977 7.86116 11.7551 7.90726 11.7797C7.90799 11.7801 7.90828 11.781 7.90792 11.7818C7.84866 11.9014 7.79707 12.0255 7.75379 12.1535C7.75353 12.1542 7.75268 12.1547 7.75189 12.1544C7.70184 12.1393 7.64897 12.1675 7.63381 12.2176C7.61412 12.2826 7.59649 12.3485 7.58099 12.4152C7.56916 12.4661 7.60086 12.517 7.65181 12.5288C7.65261 12.529 7.65313 12.5298 7.65297 12.5306C7.63975 12.5971 7.6287 12.6643 7.61991 12.7323C7.6198 12.7331 7.61907 12.7337 7.61825 12.7336C7.5662 12.7285 7.51989 12.7666 7.51483 12.8187C7.50502 12.9195 7.5 13.0217 7.5 13.125C7.5 13.2283 7.50502 13.3305 7.51483 13.4313C7.51989 13.4834 7.5662 13.5215 7.61825 13.5164C7.61907 13.5163 7.6198 13.5169 7.61991 13.5177C7.62017 13.5197 7.62043 13.5217 7.62069 13.5237C7.6208 13.5245 7.62023 13.5253 7.61942 13.5254C7.56781 13.5339 7.53283 13.5825 7.54129 13.6342C7.56356 13.77 7.5946 13.903 7.63381 14.0324C7.64897 14.0825 7.70184 14.1107 7.75189 14.0956C7.75268 14.0953 7.75353 14.0958 7.75379 14.0965C7.79707 14.2245 7.84866 14.3486 7.90792 14.4682C7.90828 14.469 7.90799 14.4699 7.90726 14.4703C7.86116 14.4949 7.8438 14.5523 7.8685 14.5984C7.90075 14.6587 7.93492 14.7177 7.97092 14.7755C7.99858 14.8199 8.05699 14.8334 8.10138 14.8058C8.10207 14.8053 8.10299 14.8055 8.10345 14.8062C8.14133 14.8629 8.18107 14.9183 8.22258 14.9722C8.22308 14.9728 8.22297 14.9737 8.22234 14.9743C8.18193 15.0075 8.17609 15.0671 8.20929 15.1076C8.3392 15.2657 8.48433 15.4108 8.64245 15.5407C8.68286 15.5739 8.74253 15.5681 8.77573 15.5277C8.77625 15.527 8.77718 15.5269 8.77783 15.5274C8.77941 15.5286 8.78099 15.5298 8.78257 15.5311C8.78322 15.5316 8.78335 15.5325 8.78288 15.5332C8.75238 15.5756 8.7621 15.6348 8.80458 15.6653C8.91506 15.7446 9.03094 15.8169 9.15156 15.8815C9.19766 15.9062 9.25505 15.8888 9.27975 15.8427C9.28014 15.842 9.28103 15.8417 9.28177 15.8421C9.4014 15.9013 9.52551 15.9529 9.65345 15.9962C9.65424 15.9965 9.65466 15.9973 9.65442 15.9981C9.63926 16.0482 9.66754 16.101 9.71759 16.1162C9.78258 16.1359 9.84846 16.1535 9.91515 16.169C9.96609 16.1808 10.017 16.1491 10.0288 16.0982C10.029 16.0974 10.0298 16.0969 10.0306 16.097C10.0971 16.1103 10.1643 16.1213 10.2323 16.1301C10.2331 16.1302 10.2337 16.1309 10.2336 16.1317C10.2285 16.1838 10.2666 16.2301 10.3187 16.2352C10.4195 16.245 10.5217 16.25 10.625 16.25C10.7283 16.25 10.8305 16.245 10.9313 16.2352C10.9834 16.2301 11.0215 16.1838 11.0164 16.1317C11.0163 16.1309 11.0169 16.1302 11.0177 16.1301C11.0197 16.1298 11.0217 16.1296 11.0237 16.1293C11.0245 16.1292 11.0253 16.1298 11.0254 16.1306C11.0339 16.1822 11.0825 16.2172 11.1342 16.2087C11.27 16.1864 11.403 16.1554 11.5324 16.1162C11.5825 16.101 11.6107 16.0482 11.5956 15.9981C11.5953 15.9973 11.5958 15.9965 11.5965 15.9962C11.7245 15.9529 11.8486 15.9013 11.9682 15.8421C11.969 15.8417 11.9699 15.842 11.9703 15.8427C11.9949 15.8888 12.0523 15.9062 12.0984 15.8815C12.1587 15.8492 12.2177 15.8151 12.2755 15.7791C12.3199 15.7514 12.3334 15.693 12.3058 15.6486C12.3053 15.6479 12.3055 15.647 12.3062 15.6466C12.3629 15.6087 12.4183 15.5689 12.4722 15.5274C12.4728 15.5269 12.4737 15.527 12.4743 15.5277C12.5075 15.5681 12.5671 15.5739 12.6076 15.5407C12.7657 15.4108 12.9108 15.2657 13.0407 15.1075C13.0739 15.0671 13.0681 15.0075 13.0277 14.9743C13.027 14.9737 13.0269 14.9728 13.0274 14.9722C13.0286 14.9706 13.0298 14.969 13.0311 14.9674C13.0316 14.9668 13.0325 14.9666 13.0332 14.9671C13.0756 14.9976 13.1348 14.9879 13.1653 14.9454C13.2446 14.8349 13.3169 14.7191 13.3815 14.5984C13.4062 14.5523 13.3888 14.4949 13.3427 14.4703C13.342 14.4699 13.3417 14.469 13.3421 14.4682C13.4013 14.3486 13.4529 14.2245 13.4962 14.0965C13.4965 14.0958 13.4973 14.0953 13.4981 14.0956C13.5482 14.1107 13.601 14.0825 13.6162 14.0324C13.6359 13.9674 13.6535 13.9015 13.669 13.8348C13.6808 13.7839 13.6491 13.733 13.5982 13.7212C13.5974 13.721 13.5969 13.7202 13.597 13.7194C13.6103 13.6529 13.6213 13.5857 13.6301 13.5177C13.6302 13.5169 13.6309 13.5163 13.6317 13.5164C13.6838 13.5215 13.7301 13.4834 13.7352 13.4313C13.745 13.3305 13.75 13.2283 13.75 13.125C13.75 13.0217 13.745 12.9195 13.7352 12.8187C13.7301 12.7666 13.6838 12.7285 13.6317 12.7336C13.6309 12.7337 13.6302 12.7331 13.6301 12.7323C13.6298 12.7303 13.6296 12.7283 13.6293 12.7263C13.6292 12.7255 13.6298 12.7247 13.6306 12.7246C13.6822 12.7161 13.7172 12.6675 13.7087 12.6158C13.6864 12.48 13.6554 12.347 13.6162 12.2176C13.601 12.1675 13.5482 12.1393 13.4981 12.1544C13.4973 12.1547 13.4965 12.1542 13.4962 12.1535C13.4529 12.0255 13.4013 11.9014 13.3421 11.7818C13.3417 11.781 13.342 11.7801 13.3427 11.7797C13.3888 11.7551 13.4062 11.6977 13.3815 11.6516C13.3492 11.5913 13.3151 11.5323 13.2791 11.4745C13.2514 11.4301 13.193 11.4166 13.1486 11.4442C13.1479 11.4447 13.147 11.4445 13.1466 11.4438C13.1087 11.3871 13.0689 11.3317 13.0274 11.2778C13.0269 11.2772 13.027 11.2763 13.0277 11.2757C13.0681 11.2425 13.0739 11.1829 13.0407 11.1425C12.9108 10.9843 12.7657 10.8392 12.6075 10.7093C12.5671 10.6761 12.5075 10.6819 12.4743 10.7223C12.4737 10.723 12.4728 10.7231 12.4722 10.7226C12.4706 10.7214 12.469 10.7202 12.4674 10.7189C12.4668 10.7184 12.4666 10.7175 12.4671 10.7168C12.4976 10.6744 12.4879 10.6152 12.4454 10.5847C12.3349 10.5054 12.2191 10.4331 12.0984 10.3685C12.0523 10.3438 11.9949 10.3612 11.9703 10.4073C11.9699 10.408 11.969 10.4083 11.9682 10.4079C11.8486 10.3487 11.7245 10.2971 11.5965 10.2538C11.5958 10.2535 11.5953 10.2527 11.5956 10.2519C11.6107 10.2018 11.5825 10.149 11.5324 10.1338C11.4674 10.1141 11.4015 10.0965 11.3348 10.081C11.2839 10.0692 11.233 10.1009 11.2212 10.1518C11.221 10.1526 11.2202 10.1531 11.2194 10.153C11.1529 10.1397 11.0857 10.1287 11.0177 10.1199C11.0169 10.1198 11.0163 10.1191 11.0164 10.1183C11.0215 10.0662 10.9834 10.0199 10.9313 10.0148C10.8305 10.005 10.7283 10 10.625 10Z" fill="#F3752B"/>
<path d="M14.375 27.5C14.2717 27.5 14.1695 27.505 14.0687 27.5148C14.0166 27.5199 13.9785 27.5662 13.9836 27.6183C13.9837 27.6191 13.9831 27.6198 13.9823 27.6199C13.9803 27.6202 13.9783 27.6204 13.9763 27.6207C13.9755 27.6208 13.9747 27.6202 13.9746 27.6194C13.9661 27.5678 13.9175 27.5328 13.8658 27.5413C13.73 27.5636 13.597 27.5946 13.4676 27.6338C13.4175 27.649 13.3893 27.7018 13.4044 27.7519C13.4047 27.7527 13.4042 27.7535 13.4035 27.7538C13.2755 27.7971 13.1514 27.8487 13.0318 27.9079C13.031 27.9083 13.0301 27.908 13.0297 27.9073C13.0051 27.8612 12.9477 27.8438 12.9016 27.8685C12.8413 27.9008 12.7823 27.9349 12.7245 27.9709C12.6801 27.9986 12.6666 28.057 12.6942 28.1014C12.6947 28.1021 12.6945 28.103 12.6938 28.1034C12.6371 28.1413 12.5817 28.1811 12.5278 28.2226C12.5272 28.2231 12.5263 28.223 12.5257 28.2223C12.4925 28.1819 12.4329 28.1761 12.3925 28.2093C12.2343 28.3392 12.0892 28.4843 11.9593 28.6425C11.9261 28.6829 11.9319 28.7425 11.9723 28.7757C11.973 28.7763 11.9731 28.7772 11.9726 28.7778C11.9714 28.7794 11.9702 28.781 11.9689 28.7826C11.9684 28.7832 11.9675 28.7834 11.9668 28.7829C11.9244 28.7524 11.8652 28.7621 11.8347 28.8046C11.7554 28.9151 11.6831 29.0309 11.6185 29.1516C11.5938 29.1977 11.6112 29.2551 11.6573 29.2797C11.658 29.2801 11.6583 29.281 11.6579 29.2818C11.5987 29.4014 11.5471 29.5255 11.5038 29.6535C11.5035 29.6542 11.5027 29.6547 11.5019 29.6544C11.4518 29.6393 11.399 29.6675 11.3838 29.7176C11.3641 29.7826 11.3465 29.8485 11.331 29.9152C11.3192 29.9661 11.3509 30.017 11.4018 30.0288C11.4026 30.029 11.4031 30.0298 11.403 30.0306C11.3897 30.0971 11.3787 30.1643 11.3699 30.2323C11.3698 30.2331 11.3691 30.2337 11.3683 30.2336C11.3162 30.2285 11.2699 30.2666 11.2648 30.3187C11.255 30.4195 11.25 30.5217 11.25 30.625C11.25 30.7283 11.255 30.8305 11.2648 30.9313C11.2699 30.9834 11.3162 31.0215 11.3683 31.0164C11.3691 31.0163 11.3698 31.0169 11.3699 31.0177C11.3702 31.0197 11.3704 31.0217 11.3707 31.0237C11.3708 31.0245 11.3702 31.0253 11.3694 31.0254C11.3178 31.0339 11.2828 31.0825 11.2913 31.1342C11.3136 31.27 11.3446 31.403 11.3838 31.5324C11.399 31.5825 11.4518 31.6107 11.5019 31.5956C11.5027 31.5953 11.5035 31.5958 11.5038 31.5965C11.5471 31.7245 11.5987 31.8486 11.6579 31.9682C11.6583 31.969 11.658 31.9699 11.6573 31.9703C11.6112 31.9949 11.5938 32.0523 11.6185 32.0984C11.6508 32.1587 11.6849 32.2177 11.7209 32.2755C11.7486 32.3199 11.807 32.3334 11.8514 32.3058C11.8521 32.3053 11.853 32.3055 11.8534 32.3062C11.8913 32.3629 11.9311 32.4183 11.9726 32.4722C11.9731 32.4728 11.973 32.4737 11.9723 32.4743C11.9319 32.5075 11.9261 32.5671 11.9593 32.6076C12.0892 32.7657 12.2343 32.9108 12.3925 33.0407C12.4329 33.0739 12.4925 33.0681 12.5257 33.0277C12.5263 33.027 12.5272 33.0269 12.5278 33.0274C12.5294 33.0286 12.531 33.0298 12.5326 33.0311C12.5332 33.0316 12.5334 33.0325 12.5329 33.0332C12.5024 33.0756 12.5121 33.1348 12.5546 33.1653C12.6651 33.2446 12.7809 33.3169 12.9016 33.3815C12.9477 33.4062 13.0051 33.3888 13.0297 33.3427C13.0301 33.342 13.031 33.3417 13.0318 33.3421C13.1514 33.4013 13.2755 33.4529 13.4035 33.4962C13.4042 33.4965 13.4047 33.4973 13.4044 33.4981C13.3893 33.5482 13.4175 33.601 13.4676 33.6162C13.5326 33.6359 13.5985 33.6535 13.6652 33.669C13.7161 33.6808 13.767 33.6491 13.7788 33.5982C13.779 33.5974 13.7798 33.5969 13.7806 33.597C13.8471 33.6103 13.9143 33.6213 13.9823 33.6301C13.9831 33.6302 13.9837 33.6309 13.9836 33.6317C13.9785 33.6838 14.0166 33.7301 14.0687 33.7352C14.1695 33.745 14.2717 33.75 14.375 33.75C14.4783 33.75 14.5805 33.745 14.6813 33.7352C14.7334 33.7301 14.7715 33.6838 14.7664 33.6317C14.7663 33.6309 14.7669 33.6302 14.7677 33.6301C14.7697 33.6298 14.7717 33.6296 14.7737 33.6293C14.7745 33.6292 14.7753 33.6298 14.7754 33.6306C14.7839 33.6822 14.8325 33.7172 14.8842 33.7087C15.02 33.6864 15.153 33.6554 15.2824 33.6162C15.3325 33.601 15.3607 33.5482 15.3456 33.4981C15.3453 33.4973 15.3458 33.4965 15.3465 33.4962C15.4745 33.4529 15.5986 33.4013 15.7182 33.3421C15.719 33.3417 15.7199 33.342 15.7203 33.3427C15.7449 33.3888 15.8023 33.4062 15.8484 33.3815C15.9087 33.3492 15.9677 33.3151 16.0255 33.2791C16.0699 33.2514 16.0834 33.193 16.0558 33.1486C16.0553 33.1479 16.0555 33.147 16.0562 33.1466C16.1129 33.1087 16.1683 33.0689 16.2222 33.0274C16.2228 33.0269 16.2237 33.027 16.2243 33.0277C16.2575 33.0681 16.3171 33.0739 16.3576 33.0407C16.5157 32.9108 16.6608 32.7657 16.7907 32.6075C16.8239 32.5671 16.8181 32.5075 16.7777 32.4743C16.777 32.4737 16.7769 32.4728 16.7774 32.4722C16.7786 32.4706 16.7798 32.469 16.7811 32.4674C16.7816 32.4668 16.7825 32.4666 16.7832 32.4671C16.8256 32.4976 16.8848 32.4879 16.9153 32.4454C16.9946 32.3349 17.0669 32.2191 17.1315 32.0984C17.1562 32.0523 17.1388 31.9949 17.0927 31.9703C17.092 31.9699 17.0917 31.969 17.0921 31.9682C17.1513 31.8486 17.2029 31.7245 17.2462 31.5965C17.2465 31.5958 17.2473 31.5953 17.2481 31.5956C17.2982 31.6107 17.351 31.5825 17.3662 31.5324C17.3859 31.4674 17.4035 31.4015 17.419 31.3348C17.4308 31.2839 17.3991 31.233 17.3482 31.2212C17.3474 31.221 17.3469 31.2202 17.347 31.2194C17.3603 31.1529 17.3713 31.0857 17.3801 31.0177C17.3802 31.0169 17.3809 31.0163 17.3817 31.0164C17.4338 31.0215 17.4801 30.9834 17.4852 30.9313C17.495 30.8305 17.5 30.7283 17.5 30.625C17.5 30.5217 17.495 30.4195 17.4852 30.3187C17.4801 30.2666 17.4338 30.2285 17.3817 30.2336C17.3809 30.2337 17.3802 30.2331 17.3801 30.2323C17.3798 30.2303 17.3796 30.2283 17.3793 30.2263C17.3792 30.2255 17.3798 30.2247 17.3806 30.2246C17.4322 30.2161 17.4672 30.1675 17.4587 30.1158C17.4364 29.98 17.4054 29.847 17.3662 29.7176C17.351 29.6675 17.2982 29.6393 17.2481 29.6544C17.2473 29.6547 17.2465 29.6542 17.2462 29.6535C17.2029 29.5255 17.1513 29.4014 17.0921 29.2818C17.0917 29.281 17.092 29.2801 17.0927 29.2797C17.1388 29.2551 17.1562 29.1977 17.1315 29.1516C17.0992 29.0913 17.0651 29.0323 17.0291 28.9745C17.0014 28.9301 16.943 28.9166 16.8986 28.9442C16.8979 28.9447 16.897 28.9445 16.8966 28.9438C16.8587 28.8871 16.8189 28.8317 16.7774 28.7778C16.7769 28.7772 16.777 28.7763 16.7777 28.7757C16.8181 28.7425 16.8239 28.6829 16.7907 28.6425C16.6608 28.4843 16.5157 28.3392 16.3575 28.2093C16.3171 28.1761 16.2575 28.1819 16.2243 28.2223C16.2237 28.223 16.2228 28.2231 16.2222 28.2226C16.2206 28.2214 16.219 28.2202 16.2174 28.2189C16.2168 28.2184 16.2166 28.2175 16.2171 28.2168C16.2476 28.1744 16.2379 28.1152 16.1954 28.0847C16.0849 28.0054 15.9691 27.9331 15.8484 27.8685C15.8023 27.8438 15.7449 27.8612 15.7203 27.9073C15.7199 27.908 15.719 27.9083 15.7182 27.9079C15.5986 27.8487 15.4745 27.7971 15.3465 27.7538C15.3458 27.7535 15.3453 27.7527 15.3456 27.7519C15.3607 27.7018 15.3325 27.649 15.2824 27.6338C15.2174 27.6141 15.1515 27.5965 15.0848 27.581C15.0339 27.5692 14.983 27.6009 14.9712 27.6518C14.971 27.6526 14.9702 27.6531 14.9694 27.653C14.9029 27.6397 14.8357 27.6287 14.7677 27.6199C14.7669 27.6198 14.7663 27.6191 14.7664 27.6183C14.7715 27.5662 14.7334 27.5199 14.6813 27.5148C14.5805 27.505 14.4783 27.5 14.375 27.5Z" fill="#F3752B"/>
<path d="M24.375 12.5C24.2717 12.5 24.1695 12.505 24.0687 12.5148C24.0166 12.5199 23.9785 12.5662 23.9836 12.6183C23.9837 12.6191 23.9831 12.6198 23.9823 12.6199C23.9803 12.6202 23.9783 12.6204 23.9763 12.6207C23.9755 12.6208 23.9747 12.6202 23.9746 12.6194C23.9661 12.5678 23.9175 12.5328 23.8658 12.5413C23.73 12.5636 23.597 12.5946 23.4676 12.6338C23.4175 12.649 23.3893 12.7018 23.4044 12.7519C23.4047 12.7527 23.4042 12.7535 23.4035 12.7538C23.2755 12.7971 23.1514 12.8487 23.0318 12.9079C23.031 12.9083 23.0301 12.908 23.0297 12.9073C23.0051 12.8612 22.9477 12.8438 22.9016 12.8685C22.8413 12.9008 22.7823 12.9349 22.7245 12.9709C22.6801 12.9986 22.6666 13.057 22.6942 13.1014C22.6947 13.1021 22.6945 13.103 22.6938 13.1034C22.6371 13.1413 22.5817 13.1811 22.5278 13.2226C22.5272 13.2231 22.5263 13.223 22.5257 13.2223C22.4925 13.1819 22.4329 13.1761 22.3925 13.2093C22.2343 13.3392 22.0892 13.4843 21.9593 13.6425C21.9261 13.6829 21.9319 13.7425 21.9723 13.7757C21.973 13.7763 21.9731 13.7772 21.9726 13.7778C21.9714 13.7794 21.9702 13.781 21.9689 13.7826C21.9684 13.7832 21.9675 13.7834 21.9668 13.7829C21.9244 13.7524 21.8652 13.7621 21.8347 13.8046C21.7554 13.9151 21.6831 14.0309 21.6185 14.1516C21.5938 14.1977 21.6112 14.2551 21.6573 14.2797C21.658 14.2801 21.6583 14.281 21.6579 14.2818C21.5987 14.4014 21.5471 14.5255 21.5038 14.6535C21.5035 14.6542 21.5027 14.6547 21.5019 14.6544C21.4518 14.6393 21.399 14.6675 21.3838 14.7176C21.3641 14.7826 21.3465 14.8485 21.331 14.9152C21.3192 14.9661 21.3509 15.017 21.4018 15.0288C21.4026 15.029 21.4031 15.0298 21.403 15.0306C21.3897 15.0971 21.3787 15.1643 21.3699 15.2323C21.3698 15.2331 21.3691 15.2337 21.3683 15.2336C21.3162 15.2285 21.2699 15.2666 21.2648 15.3187C21.255 15.4195 21.25 15.5217 21.25 15.625C21.25 15.7283 21.255 15.8305 21.2648 15.9313C21.2699 15.9834 21.3162 16.0215 21.3683 16.0164C21.3691 16.0163 21.3698 16.0169 21.3699 16.0177C21.3702 16.0197 21.3704 16.0217 21.3707 16.0237C21.3708 16.0245 21.3702 16.0253 21.3694 16.0254C21.3178 16.0339 21.2828 16.0825 21.2913 16.1342C21.3136 16.27 21.3446 16.403 21.3838 16.5324C21.399 16.5825 21.4518 16.6107 21.5019 16.5956C21.5027 16.5953 21.5035 16.5958 21.5038 16.5965C21.5471 16.7245 21.5987 16.8486 21.6579 16.9682C21.6583 16.969 21.658 16.9699 21.6573 16.9703C21.6112 16.9949 21.5938 17.0523 21.6185 17.0984C21.6508 17.1587 21.6849 17.2177 21.7209 17.2755C21.7486 17.3199 21.807 17.3334 21.8514 17.3058C21.8521 17.3053 21.853 17.3055 21.8534 17.3062C21.8913 17.3629 21.9311 17.4183 21.9726 17.4722C21.9731 17.4728 21.973 17.4737 21.9723 17.4743C21.9319 17.5075 21.9261 17.5671 21.9593 17.6076C22.0892 17.7657 22.2343 17.9108 22.3925 18.0407C22.4329 18.0739 22.4925 18.0681 22.5257 18.0277C22.5263 18.027 22.5272 18.0269 22.5278 18.0274C22.5294 18.0286 22.531 18.0298 22.5326 18.0311C22.5332 18.0316 22.5334 18.0325 22.5329 18.0332C22.5024 18.0756 22.5121 18.1348 22.5546 18.1653C22.6651 18.2446 22.7809 18.3169 22.9016 18.3815C22.9477 18.4062 23.0051 18.3888 23.0297 18.3427C23.0301 18.342 23.031 18.3417 23.0318 18.3421C23.1514 18.4013 23.2755 18.4529 23.4035 18.4962C23.4042 18.4965 23.4047 18.4973 23.4044 18.4981C23.3893 18.5482 23.4175 18.601 23.4676 18.6162C23.5326 18.6359 23.5985 18.6535 23.6652 18.669C23.7161 18.6808 23.767 18.6491 23.7788 18.5982C23.779 18.5974 23.7798 18.5969 23.7806 18.597C23.8471 18.6103 23.9143 18.6213 23.9823 18.6301C23.9831 18.6302 23.9837 18.6309 23.9836 18.6317C23.9785 18.6838 24.0166 18.7301 24.0687 18.7352C24.1695 18.745 24.2717 18.75 24.375 18.75C24.4783 18.75 24.5805 18.745 24.6813 18.7352C24.7334 18.7301 24.7715 18.6838 24.7664 18.6317C24.7663 18.6309 24.7669 18.6302 24.7677 18.6301C24.7697 18.6298 24.7717 18.6296 24.7737 18.6293C24.7745 18.6292 24.7753 18.6298 24.7754 18.6306C24.7839 18.6822 24.8325 18.7172 24.8842 18.7087C25.02 18.6864 25.153 18.6554 25.2824 18.6162C25.3325 18.601 25.3607 18.5482 25.3456 18.4981C25.3453 18.4973 25.3458 18.4965 25.3465 18.4962C25.4745 18.4529 25.5986 18.4013 25.7182 18.3421C25.719 18.3417 25.7199 18.342 25.7203 18.3427C25.7449 18.3888 25.8023 18.4062 25.8484 18.3815C25.9087 18.3492 25.9677 18.3151 26.0255 18.2791C26.0699 18.2514 26.0834 18.193 26.0558 18.1486C26.0553 18.1479 26.0555 18.147 26.0562 18.1466C26.1129 18.1087 26.1683 18.0689 26.2222 18.0274C26.2228 18.0269 26.2237 18.027 26.2243 18.0277C26.2575 18.0681 26.3171 18.0739 26.3576 18.0407C26.5157 17.9108 26.6608 17.7657 26.7907 17.6075C26.8239 17.5671 26.8181 17.5075 26.7777 17.4743C26.777 17.4737 26.7769 17.4728 26.7774 17.4722C26.7786 17.4706 26.7798 17.469 26.7811 17.4674C26.7816 17.4668 26.7825 17.4666 26.7832 17.4671C26.8256 17.4976 26.8848 17.4879 26.9153 17.4454C26.9946 17.3349 27.0669 17.2191 27.1315 17.0984C27.1562 17.0523 27.1388 16.9949 27.0927 16.9703C27.092 16.9699 27.0917 16.969 27.0921 16.9682C27.1513 16.8486 27.2029 16.7245 27.2462 16.5965C27.2465 16.5958 27.2473 16.5953 27.2481 16.5956C27.2982 16.6107 27.351 16.5825 27.3662 16.5324C27.3859 16.4674 27.4035 16.4015 27.419 16.3348C27.4308 16.2839 27.3991 16.233 27.3482 16.2212C27.3474 16.221 27.3469 16.2202 27.347 16.2194C27.3603 16.1529 27.3713 16.0857 27.3801 16.0177C27.3802 16.0169 27.3809 16.0163 27.3817 16.0164C27.4338 16.0215 27.4801 15.9834 27.4852 15.9313C27.495 15.8305 27.5 15.7283 27.5 15.625C27.5 15.5217 27.495 15.4195 27.4852 15.3187C27.4801 15.2666 27.4338 15.2285 27.3817 15.2336C27.3809 15.2337 27.3802 15.2331 27.3801 15.2323C27.3798 15.2303 27.3796 15.2283 27.3793 15.2263C27.3792 15.2255 27.3798 15.2247 27.3806 15.2246C27.4322 15.2161 27.4672 15.1675 27.4587 15.1158C27.4364 14.98 27.4054 14.847 27.3662 14.7176C27.351 14.6675 27.2982 14.6393 27.2481 14.6544C27.2473 14.6547 27.2465 14.6542 27.2462 14.6535C27.2029 14.5255 27.1513 14.4014 27.0921 14.2818C27.0917 14.281 27.092 14.2801 27.0927 14.2797C27.1388 14.2551 27.1562 14.1977 27.1315 14.1516C27.0992 14.0913 27.0651 14.0323 27.0291 13.9745C27.0014 13.9301 26.943 13.9166 26.8986 13.9442C26.8979 13.9447 26.897 13.9445 26.8966 13.9438C26.8587 13.8871 26.8189 13.8317 26.7774 13.7778C26.7769 13.7772 26.777 13.7763 26.7777 13.7757C26.8181 13.7425 26.8239 13.6829 26.7907 13.6425C26.6608 13.4843 26.5157 13.3392 26.3575 13.2093C26.3171 13.1761 26.2575 13.1819 26.2243 13.2223C26.2237 13.223 26.2228 13.2231 26.2222 13.2226C26.2206 13.2214 26.219 13.2202 26.2174 13.2189C26.2168 13.2184 26.2166 13.2175 26.2171 13.2168C26.2476 13.1744 26.2379 13.1152 26.1954 13.0847C26.0849 13.0054 25.9691 12.9331 25.8484 12.8685C25.8023 12.8438 25.7449 12.8612 25.7203 12.9073C25.7199 12.908 25.719 12.9083 25.7182 12.9079C25.5986 12.8487 25.4745 12.7971 25.3465 12.7538C25.3458 12.7535 25.3453 12.7527 25.3456 12.7519C25.3607 12.7018 25.3325 12.649 25.2824 12.6338C25.2174 12.6141 25.1515 12.5965 25.0848 12.581C25.0339 12.5692 24.983 12.6009 24.9712 12.6518C24.971 12.6526 24.9702 12.6531 24.9694 12.653C24.9029 12.6397 24.8357 12.6287 24.7677 12.6199C24.7669 12.6198 24.7663 12.6191 24.7664 12.6183C24.7715 12.5662 24.7334 12.5199 24.6813 12.5148C24.5805 12.505 24.4783 12.5 24.375 12.5Z" fill="#F3752B"/>
<path fill-rule="evenodd" clip-rule="evenodd" d="M0.303397 22.926C0.381591 22.7402 0.550672 22.5975 0.764255 22.5625C0.76945 22.5617 0.773077 22.5569 0.772391 22.5517L0.767388 22.5133C0.766715 22.5081 0.762002 22.5044 0.756786 22.5049C0.423642 22.5373 0.127292 22.2935 0.0948705 21.9604C0.0883862 21.8938 0.0822292 21.827 0.0764008 21.7602C0.211713 20.9756 0.895533 20.3788 1.71875 20.3788H4.84375C5.12606 20.3788 5.39198 20.449 5.625 20.5729C5.85802 20.449 6.12394 20.3788 6.40625 20.3788H11.0938C11.8098 20.3788 12.4204 20.8303 12.6563 21.4642C12.8197 21.0251 13.1628 20.6736 13.5963 20.4989C13.3773 20.443 13.1662 20.3413 12.9773 20.1923C12.2548 19.6221 12.1312 18.5741 12.7015 17.8515L14.6273 15.411C14.8012 15.1907 15.0195 15.026 15.2595 14.9198C15.307 14.6617 15.4164 14.4111 15.5903 14.1908L18.4791 10.5301C18.9177 9.97426 19.6389 9.77289 20.2774 9.96903C19.9382 9.39369 19.9664 8.64536 20.405 8.08957L21.3679 6.86933C21.9381 6.14675 22.9861 6.02324 23.7087 6.59345C24.4313 7.16367 24.5548 8.21169 23.9846 8.93427L23.0217 10.1545C22.5831 10.7103 21.8618 10.9117 21.2234 10.7155C21.5625 11.2909 21.5344 12.0392 21.0958 12.595L18.207 16.2557C18.0331 16.476 17.8148 16.6407 17.5748 16.7469C17.5273 17.005 17.4179 17.2556 17.244 17.4759L15.3182 19.9164C15.1593 20.1177 14.9634 20.2725 14.7477 20.3788H15.7813C16.7017 20.3788 17.4479 21.125 17.4479 22.0455C17.4479 22.966 16.7017 23.7121 15.7813 23.7121H14.2188C13.5906 23.7121 13.0436 23.3646 12.7595 22.8514C12.7117 23.1083 12.6025 23.3577 12.4294 23.5771L11.4664 24.7974C11.0278 25.3532 10.3066 25.5545 9.66812 25.3584C10.0073 25.9337 9.97914 26.6821 9.54055 27.2378L6.65174 30.8986C6.47786 31.1189 6.25956 31.2835 6.0196 31.3898C5.97205 31.6479 5.86268 31.8985 5.6888 32.1188L4.9014 33.1166C4.77878 32.9756 4.6581 32.8328 4.5394 32.6883C4.32692 32.4297 4.36432 32.0478 4.62294 31.8353C4.62698 31.832 4.6277 31.8261 4.62451 31.8219C4.3588 31.4769 4.10446 31.1226 3.86203 30.7597C3.85911 30.7554 3.85323 30.7541 3.84878 30.7569C3.5647 30.9339 3.19091 30.8471 3.01389 30.5631C2.96323 30.4818 2.91314 30.4001 2.86363 30.318L3.0721 30.0539C3.24598 29.8335 3.46428 29.6689 3.70424 29.5626C3.75179 29.3046 3.86116 29.054 4.03504 28.8336L6.92385 25.1729C7.36244 24.6171 8.08371 24.4158 8.72214 24.6119C8.56069 24.338 8.48247 24.025 8.49213 23.7121H6.40625C6.12394 23.7121 5.85802 23.642 5.625 23.5181C5.39198 23.642 5.12606 23.7121 4.84375 23.7121H1.71875C1.12153 23.7121 0.597678 23.398 0.303397 22.926ZM30.846 36.5282C30.8288 36.71 30.73 36.882 30.563 36.9861C30.1933 37.2165 29.8154 37.4352 29.43 37.6416C29.1349 37.7997 28.7676 37.6886 28.6096 37.3935C28.6071 37.3889 28.6014 37.387 28.5967 37.3894C28.4879 37.4432 28.3786 37.4961 28.2687 37.548C28.366 37.0947 28.6475 36.7099 29.0311 36.4757C28.5517 36.183 28.2316 35.655 28.2316 35.0521V30.7813C28.2316 30.5266 28.2887 30.2853 28.3908 30.0695C28.2887 29.8536 28.2316 29.6123 28.2316 29.3577V26.5104C28.2316 25.59 28.9778 24.8438 29.8983 24.8438C30.8187 24.8438 31.5649 25.59 31.5649 26.5104V29.3577C31.5649 29.6123 31.5078 29.8536 31.4057 30.0695C31.5078 30.2853 31.5649 30.5266 31.5649 30.7813V35.0521C31.5649 35.2636 31.5255 35.466 31.4536 35.6521C31.226 35.819 30.9947 35.981 30.7597 36.138C30.7553 36.1409 30.7541 36.1468 30.7569 36.1512C30.8099 36.2363 30.8392 36.3293 30.8467 36.4228C30.8201 36.4412 30.793 36.4588 30.7654 36.4757C30.7928 36.4924 30.8196 36.5099 30.846 36.5282ZM39.9965 20.3788C39.9866 20.9112 39.9558 21.4387 39.9051 21.9604C39.8726 22.2935 39.5763 22.5373 39.2432 22.5049C39.2379 22.5044 39.2332 22.5081 39.2326 22.5133C39.1807 22.9137 39.1167 23.3104 39.0408 23.7028C38.204 23.614 37.5521 22.9059 37.5521 22.0455C37.5521 21.125 38.2983 20.3788 39.2188 20.3788H39.9965ZM31.5641 3.6803C31.5647 3.69769 31.5649 3.71514 31.5649 3.73266V5.15627C31.5649 6.07675 30.8187 6.82294 29.8983 6.82294C28.9778 6.82294 28.2316 6.07675 28.2316 5.15627V3.73266C28.2316 3.66689 28.2354 3.60201 28.2428 3.53823L26.8734 5.27356C26.3032 5.99614 25.2552 6.11966 24.5326 5.54944C23.81 4.97922 23.6865 3.9312 24.2567 3.20862L26.0215 0.972198C26.2015 1.12351 26.2842 1.37285 26.2117 1.61212C26.2101 1.61719 26.2129 1.6226 26.2179 1.6243C27.0367 1.90127 27.831 2.23143 28.5967 2.61068C28.6014 2.61301 28.6071 2.61113 28.6096 2.60649C28.7676 2.31143 29.1349 2.20035 29.43 2.35839C30.1705 2.75503 30.8831 3.19691 31.5641 3.6803ZM31.5649 9.4271C31.5649 8.50663 30.8187 7.76044 29.8983 7.76044C28.9778 7.76044 28.2316 8.50663 28.2316 9.4271V12.2743C28.2316 12.529 28.2887 12.7703 28.3908 12.9861C28.2887 13.202 28.2316 13.4433 28.2316 13.6979V17.9688C28.2316 18.5716 28.5517 19.0997 29.0311 19.3924C28.672 19.6116 28.4023 19.9629 28.2895 20.3788H25.1562C24.8739 20.3788 24.608 20.449 24.375 20.5729C24.142 20.449 23.8761 20.3788 23.5938 20.3788H20.4688C19.5483 20.3788 18.8021 21.125 18.8021 22.0455C18.8021 22.966 19.5483 23.7121 20.4688 23.7121H23.5938C23.8761 23.7121 24.142 23.6419 24.375 23.5181C24.608 23.6419 24.8739 23.7121 25.1562 23.7121H29.1169C29.3499 23.8361 29.6159 23.9063 29.8983 23.9063C30.6282 23.9063 31.2486 23.437 31.4741 22.7837C31.7463 23.3339 32.3134 23.7121 32.9688 23.7121H34.5312C35.4517 23.7121 36.1979 22.966 36.1979 22.0455C36.1979 21.125 35.4517 20.3788 34.5312 20.3788H32.9688C32.3792 20.3788 31.8612 20.6849 31.5649 21.1467V20.816C31.5649 20.2131 31.2449 19.6851 30.7654 19.3924C31.2449 19.0997 31.5649 18.5716 31.5649 17.9688V13.6979C31.5649 13.4433 31.5078 13.202 31.4057 12.9861C31.5078 12.7703 31.5649 12.529 31.5649 12.2743V9.4271Z" fill="white"/>
<path d="M18.75 5C18.75 7.76142 16.5114 10 13.75 10C13.75 7.23858 15.9886 5 18.75 5Z" fill="#00A896"/>
<path fill-rule="evenodd" clip-rule="evenodd" d="M17.4149 4.43705C17.53 4.33483 17.6748 4.2633 17.8382 4.23762C18.1358 4.19086 18.4403 4.16666 18.75 4.16666C19.2102 4.16666 19.5833 4.53975 19.5833 4.99999C19.5833 5.30965 19.5591 5.61423 19.5124 5.9118C19.4495 6.31204 19.1114 6.60068 18.7212 6.61529C19.0284 6.85634 19.1324 7.28852 18.9482 7.64936C18.8086 7.92267 18.6483 8.1834 18.4692 8.42945C18.2311 8.75664 17.7994 8.85963 17.4457 8.69565C17.6096 9.04937 17.5066 9.48106 17.1795 9.71918C16.6899 10.0755 16.1422 10.3578 15.553 10.5491C15.3956 10.6002 15.2341 10.602 15.0851 10.5629C14.97 10.6651 14.8252 10.7367 14.6618 10.7624C14.3642 10.8091 14.0597 10.8333 13.75 10.8333C13.2898 10.8333 12.9167 10.4602 12.9167 9.99999C12.9167 9.69033 12.9409 9.38575 12.9876 9.08818C13.0505 8.68794 13.3886 8.3993 13.7788 8.38469C13.4716 8.14364 13.3676 7.71146 13.5518 7.35062C13.6914 7.07731 13.8517 6.81658 14.0308 6.57053C14.2689 6.24335 14.7006 6.14035 15.0543 6.30433C14.8904 5.95061 14.9933 5.51892 15.3205 5.28081C15.8101 4.92451 16.3578 4.6422 16.947 4.45087C17.1043 4.39977 17.2659 4.39801 17.4149 4.43705ZM15.4611 6.71113C15.5835 6.97641 15.5625 7.29829 15.3784 7.55126C15.2503 7.72723 15.1358 7.91347 15.0362 8.10847C14.8942 8.38663 14.6174 8.55092 14.3261 8.56241C14.496 8.69625 14.61 8.89343 14.6377 9.11226C14.6734 9.11678 14.7085 9.12361 14.7429 9.13259C14.8261 9.05876 14.9256 9.00049 15.0382 8.96392C15.4578 8.82768 15.8486 8.62641 16.1987 8.37161C16.4517 8.18749 16.7736 8.1665 17.0388 8.28885C16.9165 8.02357 16.9375 7.70169 17.1216 7.44872C17.2497 7.27275 17.3642 7.08651 17.4638 6.89151C17.6058 6.61336 17.8826 6.44906 18.1739 6.43757C18.004 6.30373 17.89 6.10655 17.8623 5.88772C17.8266 5.8832 17.7915 5.87637 17.7571 5.86739C17.6738 5.94122 17.5743 5.99949 17.4617 6.03606C17.0422 6.1723 16.6514 6.37357 16.3013 6.62837C16.0483 6.81249 15.7264 6.83348 15.4611 6.71113Z" fill="#00A896"/>
<path d="M18.75 26.25C21.5114 26.25 23.75 28.4886 23.75 31.25C20.9886 31.25 18.75 29.0114 18.75 26.25Z" fill="#00A896"/>
<path fill-rule="evenodd" clip-rule="evenodd" d="M18.1871 27.5851C18.0848 27.47 18.0133 27.3252 17.9876 27.1618C17.9409 26.8642 17.9167 26.5596 17.9167 26.25C17.9167 25.7898 18.2898 25.4167 18.75 25.4167C19.0597 25.4167 19.3642 25.4409 19.6618 25.4876C20.0621 25.5505 20.3507 25.8886 20.3653 26.2788C20.6064 25.9716 21.0385 25.8676 21.3994 26.0518C21.6727 26.1914 21.9334 26.3517 22.1795 26.5308C22.5066 26.7689 22.6096 27.2006 22.4457 27.5543C22.7994 27.3904 23.2311 27.4933 23.4692 27.8205C23.8255 28.3101 24.1078 28.8578 24.2991 29.447C24.3502 29.6043 24.352 29.7659 24.3129 29.9149C24.4152 30.03 24.4867 30.1748 24.5124 30.3382C24.5591 30.6358 24.5833 30.9403 24.5833 31.25C24.5833 31.7102 24.2102 32.0833 23.75 32.0833C23.4403 32.0833 23.1358 32.0591 22.8382 32.0124C22.438 31.9495 22.1493 31.6114 22.1347 31.2212C21.8937 31.5284 21.4615 31.6324 21.1006 31.4482C20.8273 31.3086 20.5666 31.1482 20.3205 30.9692C19.9934 30.7311 19.8904 30.2994 20.0543 29.9456C19.7006 30.1096 19.2689 30.0066 19.0308 29.6794C18.6745 29.1899 18.3922 28.6422 18.2009 28.053C18.1498 27.8956 18.148 27.7341 18.1871 27.5851ZM20.4611 29.5388C20.7264 29.4165 21.0483 29.4375 21.3013 29.6216C21.4772 29.7497 21.6635 29.8642 21.8585 29.9638C22.1366 30.1058 22.3009 30.3826 22.3124 30.6739C22.4463 30.504 22.6434 30.39 22.8623 30.3623C22.8668 30.3266 22.8736 30.2915 22.8826 30.2571C22.8088 30.1738 22.7505 30.0743 22.7139 29.9617C22.5777 29.5422 22.3764 29.1514 22.1216 28.8013C21.9375 28.5483 21.9165 28.2264 22.0389 27.9611C21.7736 28.0835 21.4517 28.0625 21.1987 27.8784C21.0228 27.7503 20.8365 27.6358 20.6415 27.5362C20.3634 27.3942 20.1991 27.1174 20.1876 26.8261C20.0537 26.996 19.8566 27.11 19.6377 27.1377C19.6332 27.1734 19.6264 27.2085 19.6174 27.2429C19.6912 27.3261 19.7495 27.4256 19.7861 27.5382C19.9223 27.9578 20.1236 28.3486 20.3784 28.6987C20.5625 28.9517 20.5835 29.2736 20.4611 29.5388Z" fill="#00A896"/>
<path d="M62 20.95C59.2889 20.95 57.9333 21.7833 57.9333 23.45C57.9333 24.05 58.1111 24.5278 58.4667 24.8833C58.8222 25.2167 59.3 25.3833 59.9 25.3833C60.9667 25.3833 61.8333 25.05 62.5 24.3833C63.1667 23.6944 63.5 22.7833 63.5 21.65V21.25C63.5 21.05 63.4 20.95 63.2 20.95H62ZM58.2667 29.2167C56.7333 29.2167 55.4667 28.7278 54.4667 27.75C53.4889 26.75 53 25.4611 53 23.8833C53 19.8389 56 17.8167 62 17.8167H63.2C63.4 17.8167 63.5 17.7278 63.5 17.55V17.3833C63.5 16.5389 63.2778 15.9278 62.8333 15.55C62.4111 15.1722 61.6889 14.9833 60.6667 14.9833C59.3111 14.9833 57.6889 15.1944 55.8 15.6167C55.3333 15.7055 54.9111 15.6055 54.5333 15.3167C54.1778 15.0278 54 14.65 54 14.1833V14.1167C54 13.5611 54.1667 13.0611 54.5 12.6167C54.8556 12.15 55.3 11.8722 55.8333 11.7833C57.7889 11.4055 59.4778 11.2167 60.9 11.2167C63.8111 11.2167 65.8667 11.7389 67.0667 12.7833C68.2889 13.8278 68.9 15.5611 68.9 17.9833V26.9833C68.9 27.4944 68.7111 27.9389 68.3333 28.3167C67.9556 28.6944 67.5111 28.8833 67 28.8833H65.7667C65.2333 28.8833 64.7778 28.7055 64.4 28.35C64.0222 27.9722 63.8222 27.5167 63.8 26.9833V26.6167C63.8 26.5944 63.7889 26.5833 63.7667 26.5833C63.7222 26.5833 63.7 26.5944 63.7 26.6167C62.3 28.35 60.4889 29.2167 58.2667 29.2167Z" fill="#00A896"/>
<path d="M78.4034 18.15V22.2833C78.4034 23.0167 78.7367 23.6944 79.4034 24.3167C80.0923 24.9167 80.8701 25.2167 81.7367 25.2167C82.7589 25.2167 83.5701 24.8055 84.1701 23.9833C84.7701 23.1389 85.0701 21.8833 85.0701 20.2167C85.0701 16.8833 83.9589 15.2167 81.7367 15.2167C80.8701 15.2167 80.0923 15.5278 79.4034 16.15C78.7367 16.75 78.4034 17.4167 78.4034 18.15ZM75.0367 36.2167C74.5256 36.2167 74.0812 36.0278 73.7034 35.65C73.3256 35.2722 73.1367 34.8278 73.1367 34.3167V13.45C73.1367 12.9389 73.3256 12.4944 73.7034 12.1167C74.0812 11.7389 74.5256 11.55 75.0367 11.55H76.3701C76.9034 11.55 77.3589 11.7389 77.7367 12.1167C78.1145 12.4722 78.3145 12.9167 78.3367 13.45V13.7167C78.3367 13.7389 78.3478 13.75 78.3701 13.75L78.4367 13.6833C79.8589 12.0389 81.5701 11.2167 83.5701 11.2167C85.6367 11.2167 87.2812 11.9944 88.5034 13.55C89.7478 15.1055 90.3701 17.3278 90.3701 20.2167C90.3701 23.0167 89.7256 25.2167 88.4367 26.8167C87.1701 28.4167 85.5478 29.2167 83.5701 29.2167C81.7256 29.2167 80.0812 28.5389 78.6367 27.1833C78.6145 27.1611 78.5923 27.15 78.5701 27.15C78.5478 27.15 78.5367 27.1611 78.5367 27.1833V34.3167C78.5367 34.8278 78.3478 35.2722 77.9701 35.65C77.5923 36.0278 77.1478 36.2167 76.6367 36.2167H75.0367Z" fill="#00A896"/>
<path d="M94.6747 15.6167C94.1636 15.6167 93.7192 15.4278 93.3414 15.05C92.9636 14.6722 92.7747 14.2278 92.7747 13.7167V13.45C92.7747 12.9389 92.9636 12.4944 93.3414 12.1167C93.7192 11.7389 94.1636 11.55 94.6747 11.55H106.741C107.253 11.55 107.697 11.7389 108.075 12.1167C108.453 12.4944 108.641 12.9389 108.641 13.45V13.7167C108.641 14.2278 108.453 14.6722 108.075 15.05C107.697 15.4278 107.253 15.6167 106.741 15.6167H103.775C103.597 15.6167 103.508 15.7167 103.508 15.9167V26.9833C103.508 27.4944 103.319 27.9389 102.941 28.3167C102.564 28.6944 102.119 28.8833 101.608 28.8833H99.8081C99.297 28.8833 98.8525 28.6944 98.4747 28.3167C98.097 27.9389 97.9081 27.4944 97.9081 26.9833V15.9167C97.9081 15.7167 97.8192 15.6167 97.6414 15.6167H94.6747Z" fill="#00A896"/>
<path d="M119.47 14.85C118.47 14.85 117.714 15.1167 117.203 15.65C116.692 16.1611 116.37 17.05 116.236 18.3167C116.236 18.4944 116.314 18.5833 116.47 18.5833H122.103C122.303 18.5833 122.403 18.4833 122.403 18.2833C122.314 15.9944 121.336 14.85 119.47 14.85ZM120.303 29.2167C117.281 29.2167 114.948 28.45 113.303 26.9167C111.681 25.3833 110.87 23.15 110.87 20.2167C110.87 17.3055 111.592 15.0833 113.036 13.55C114.503 11.9944 116.614 11.2167 119.37 11.2167C124.659 11.2167 127.348 14.1055 127.436 19.8833C127.436 20.4167 127.225 20.8722 126.803 21.25C126.403 21.6055 125.936 21.7833 125.403 21.7833H116.503C116.281 21.7833 116.192 21.8833 116.236 22.0833C116.414 23.3055 116.881 24.1833 117.636 24.7167C118.414 25.2278 119.57 25.4833 121.103 25.4833C122.103 25.4833 123.181 25.3389 124.336 25.05C124.803 24.9389 125.214 25.0278 125.57 25.3167C125.948 25.6055 126.136 25.9833 126.136 26.45V26.5167C126.136 27.0722 125.959 27.5833 125.603 28.05C125.27 28.4944 124.836 28.7611 124.303 28.85C123.014 29.0944 121.681 29.2167 120.303 29.2167ZM123.603 3.78333C124.114 3.78333 124.548 3.97221 124.903 4.34999C125.281 4.70555 125.47 5.13888 125.47 5.64999V6.88332C125.47 7.39444 125.281 7.83888 124.903 8.21666C124.548 8.59444 124.114 8.78332 123.603 8.78332H122.47C121.959 8.78332 121.514 8.59444 121.136 8.21666C120.781 7.83888 120.603 7.39444 120.603 6.88332V5.64999C120.603 5.13888 120.781 4.70555 121.136 4.34999C121.514 3.97221 121.959 3.78333 122.47 3.78333H123.603ZM115.136 3.78333H116.27C116.781 3.78333 117.214 3.97221 117.57 4.34999C117.948 4.70555 118.136 5.13888 118.136 5.64999V6.88332C118.136 7.39444 117.948 7.83888 117.57 8.21666C117.214 8.59444 116.781 8.78332 116.27 8.78332H115.136C114.625 8.78332 114.181 8.59444 113.803 8.21666C113.448 7.83888 113.27 7.39444 113.27 6.88332V5.64999C113.27 5.13888 113.448 4.70555 113.803 4.34999C114.181 3.97221 114.625 3.78333 115.136 3.78333Z" fill="#00A896"/>
<path d="M132.718 28.8833C132.207 28.8833 131.763 28.6944 131.385 28.3167C131.029 27.9389 130.852 27.4944 130.852 26.9833V13.45C130.852 12.9389 131.029 12.4944 131.385 12.1167C131.763 11.7389 132.207 11.55 132.718 11.55H134.485C135.04 11.55 135.563 11.7167 136.052 12.05C136.54 12.3611 136.907 12.7722 137.152 13.2833L140.585 21.15L140.652 21.1833L140.685 21.15L144.152 13.2833C144.396 12.7722 144.752 12.3611 145.218 12.05C145.707 11.7167 146.229 11.55 146.785 11.55H148.652C149.163 11.55 149.596 11.7389 149.952 12.1167C150.329 12.4944 150.518 12.9389 150.518 13.45V26.9833C150.518 27.4944 150.329 27.9389 149.952 28.3167C149.596 28.6944 149.163 28.8833 148.652 28.8833H147.118C146.607 28.8833 146.163 28.6944 145.785 28.3167C145.429 27.9389 145.252 27.4944 145.252 26.9833V18.85L145.218 18.8167L145.185 18.85L143.352 23.1833C143.129 23.7167 142.774 24.1389 142.285 24.45C141.818 24.7611 141.296 24.9167 140.718 24.9167H140.552C139.974 24.9167 139.44 24.7611 138.952 24.45C138.485 24.1389 138.14 23.7167 137.918 23.1833L136.085 18.85L136.052 18.8167L136.018 18.85V26.9833C136.018 27.4944 135.829 27.9389 135.452 28.3167C135.096 28.6944 134.663 28.8833 134.152 28.8833H132.718Z" fill="#00A896"/>
<path d="M159.9 28.8666C159.389 28.8666 158.944 28.6778 158.567 28.3C158.189 27.9222 158 27.4778 158 26.9666V13.4333C158 12.9222 158.189 12.4778 158.567 12.1C158.944 11.7222 159.389 11.5333 159.9 11.5333H171.9C172.411 11.5333 172.856 11.7222 173.233 12.1C173.611 12.4778 173.8 12.9222 173.8 13.4333V26.9666C173.8 27.4778 173.611 27.9222 173.233 28.3C172.856 28.6778 172.411 28.8666 171.9 28.8666H170.233C169.722 28.8666 169.278 28.6778 168.9 28.3C168.522 27.9222 168.333 27.4778 168.333 26.9666V15.7333C168.333 15.5555 168.244 15.4666 168.067 15.4666H163.733C163.556 15.4666 163.467 15.5555 163.467 15.7333V26.9666C163.467 27.4778 163.278 27.9222 162.9 28.3C162.522 28.6778 162.078 28.8666 161.567 28.8666H159.9Z" fill="#F3752B"/>
<path d="M180.115 28.8666C179.604 28.8666 179.159 28.6778 178.782 28.3C178.404 27.9222 178.215 27.4778 178.215 26.9666V13.4333C178.215 12.9222 178.404 12.4778 178.782 12.1C179.159 11.7222 179.604 11.5333 180.115 11.5333H181.682C182.193 11.5333 182.637 11.7222 183.015 12.1C183.393 12.4778 183.582 12.9222 183.582 13.4333V21.5H183.648L187.748 13.2333C188.304 12.1 189.215 11.5333 190.482 11.5333H192.115C192.626 11.5333 193.07 11.7222 193.448 12.1C193.826 12.4778 194.015 12.9222 194.015 13.4333V26.9666C194.015 27.4778 193.826 27.9222 193.448 28.3C193.07 28.6778 192.626 28.8666 192.115 28.8666H190.548C190.037 28.8666 189.593 28.6778 189.215 28.3C188.837 27.9222 188.648 27.4778 188.648 26.9666V18.9H188.582L184.482 27.1666C183.926 28.3 183.015 28.8666 181.748 28.8666H180.115Z" fill="#F3752B"/>
<path d="M200.33 28.8666C199.819 28.8666 199.374 28.6778 198.996 28.3C198.619 27.9222 198.43 27.4778 198.43 26.9666V13.4333C198.43 12.9222 198.619 12.4778 198.996 12.1C199.374 11.7222 199.819 11.5333 200.33 11.5333H201.996C202.507 11.5333 202.941 11.7222 203.296 12.1C203.674 12.4778 203.863 12.9222 203.863 13.4333V24.9C203.863 25.0778 203.963 25.1666 204.163 25.1666H208.463C208.663 25.1666 208.763 25.0778 208.763 24.9V13.4333C208.763 12.9222 208.952 12.4778 209.33 12.1C209.707 11.7222 210.152 11.5333 210.663 11.5333H212.33C212.841 11.5333 213.274 11.7222 213.63 12.1C214.007 12.4778 214.196 12.9222 214.196 13.4333V24.9C214.196 25.0778 214.296 25.1666 214.496 25.1666H215.763C216.274 25.1666 216.719 25.3555 217.096 25.7333C217.474 26.1111 217.663 26.5555 217.663 27.0666V30.9666C217.663 31.4778 217.474 31.9222 217.096 32.3C216.719 32.6778 216.274 32.8666 215.763 32.8666H214.763C214.252 32.8666 213.807 32.6778 213.43 32.3C213.052 31.9222 212.863 31.4778 212.863 30.9666V29.1666C212.863 28.9667 212.774 28.8666 212.596 28.8666H200.33Z" fill="#F3752B"/>
<path d="M222.628 28.8666C222.117 28.8666 221.672 28.6778 221.295 28.3C220.917 27.9222 220.728 27.4778 220.728 26.9666V13.4333C220.728 12.9222 220.917 12.4778 221.295 12.1C221.672 11.7222 222.117 11.5333 222.628 11.5333H224.295C224.806 11.5333 225.239 11.7222 225.595 12.1C225.972 12.4778 226.161 12.9222 226.161 13.4333V24.9C226.161 25.0778 226.261 25.1666 226.461 25.1666H230.761C230.961 25.1666 231.061 25.0778 231.061 24.9V13.4333C231.061 12.9222 231.25 12.4778 231.628 12.1C232.006 11.7222 232.45 11.5333 232.961 11.5333H234.628C235.139 11.5333 235.572 11.7222 235.928 12.1C236.306 12.4778 236.495 12.9222 236.495 13.4333V24.9C236.495 25.0778 236.595 25.1666 236.795 25.1666H238.061C238.572 25.1666 239.017 25.3555 239.395 25.7333C239.772 26.1111 239.961 26.5555 239.961 27.0666V30.9666C239.961 31.4778 239.772 31.9222 239.395 32.3C239.017 32.6778 238.572 32.8666 238.061 32.8666H237.061C236.55 32.8666 236.106 32.6778 235.728 32.3C235.35 31.9222 235.161 31.4778 235.161 30.9666V29.1666C235.161 28.9667 235.072 28.8666 234.895 28.8666H222.628Z" fill="#F3752B"/>
<path d="M251.193 20.9333C248.482 20.9333 247.126 21.7666 247.126 23.4333C247.126 24.0333 247.304 24.5111 247.659 24.8666C248.015 25.2 248.493 25.3666 249.093 25.3666C250.159 25.3666 251.026 25.0333 251.693 24.3666C252.359 23.6778 252.693 22.7666 252.693 21.6333V21.2333C252.693 21.0333 252.593 20.9333 252.393 20.9333H251.193ZM247.459 29.2C245.926 29.2 244.659 28.7111 243.659 27.7333C242.682 26.7333 242.193 25.4444 242.193 23.8666C242.193 19.8222 245.193 17.8 251.193 17.8H252.393C252.593 17.8 252.693 17.7111 252.693 17.5333V17.3666C252.693 16.5222 252.47 15.9111 252.026 15.5333C251.604 15.1555 250.882 14.9666 249.859 14.9666C248.504 14.9666 246.882 15.1778 244.993 15.6C244.526 15.6889 244.104 15.5889 243.726 15.3C243.37 15.0111 243.193 14.6333 243.193 14.1666V14.1C243.193 13.5444 243.359 13.0444 243.693 12.6C244.048 12.1333 244.493 11.8555 245.026 11.7666C246.982 11.3889 248.67 11.2 250.093 11.2C253.004 11.2 255.059 11.7222 256.259 12.7666C257.482 13.8111 258.093 15.5444 258.093 17.9666V26.9666C258.093 27.4778 257.904 27.9222 257.526 28.3C257.148 28.6778 256.704 28.8666 256.193 28.8666H254.959C254.426 28.8666 253.97 28.6889 253.593 28.3333C253.215 27.9555 253.015 27.5 252.993 26.9666V26.6C252.993 26.5778 252.982 26.5666 252.959 26.5666C252.915 26.5666 252.893 26.5778 252.893 26.6C251.493 28.3333 249.682 29.2 247.459 29.2Z" fill="#F3752B"/>
</svg>
